<svg width="35" height="35" fill="none" xmlns="http://www.w3.org/2000/svg"><path fill-rule="evenodd" clip-rule="evenodd" d="M17.5 19.406a6.667 6.667 0 01-6.66-6.66 6.667 6.667 0 016.66-6.659 6.667 6.667 0 016.66 6.66 6.667 6.667 0 01-6.66 6.659zm13.731 8.924a15.026 15.026 0 00-9.823-8.398 8.186 8.186 0 004.273-7.185c0-4.511-3.67-8.182-8.181-8.182-4.511 0-8.18 3.67-8.18 8.182a8.187 8.187 0 004.274 7.186A15.036 15.036 0 003.77 28.33 17.405 17.405 0 010 17.5C0 7.85 7.85 0 17.5 0S35 7.85 35 17.5c0 4.087-1.411 7.85-3.769 10.83zM17.5 35c-4.95 0-9.423-2.07-12.61-5.384 1.99-5.21 7-8.688 12.61-8.688a13.5 13.5 0 0112.61 8.689C26.922 32.93 22.45 35 17.5 35z" fill="#E20202"/></svg>