<svg xmlns="http://www.w3.org/2000/svg" xmlns:xlink="http://www.w3.org/1999/xlink" width="500" zoomAndPan="magnify" viewBox="0 0 375 374.999991" height="500" preserveAspectRatio="xMidYMid meet" version="1.0"><defs><clipPath id="6ca8343422"><path d="M 83 37.5 L 282 37.5 L 282 280 L 83 280 Z M 83 37.5 " clip-rule="nonzero"/></clipPath><clipPath id="c6f05c98f0"><path d="M 99 37.5 L 266 37.5 L 266 269 L 99 269 Z M 99 37.5 " clip-rule="nonzero"/></clipPath><clipPath id="6af692f3e0"><path d="M 28.445312 217 L 337.207031 217 L 337.207031 312.394531 L 28.445312 312.394531 Z M 28.445312 217 " clip-rule="nonzero"/></clipPath></defs><rect x="-37.5" width="450" fill="#ffffff" y="-37.499999" height="449.999989" fill-opacity="1"/><rect x="-37.5" width="450" fill="#ffffff" y="-37.499999" height="449.999989" fill-opacity="1"/><g clip-path="url(#6ca8343422)"><path fill="#004aad" d="M 281.96875 264.375 C 281.96875 261.378906 271.828125 257.886719 255.429688 254.667969 C 243.304688 252.285156 228.121094 250.496094 211.105469 249.546875 C 209.316406 249.449219 202.304688 249.121094 199.101562 248.976562 C 198.609375 248.953125 198.210938 248.9375 197.929688 248.925781 C 200.152344 245.820312 202.367188 242.710938 204.574219 239.59375 C 204.789062 239.605469 205.203125 239.628906 205.75 239.652344 C 208.707031 235.492188 211.710938 231.242188 214.71875 226.929688 C 213.941406 226.871094 213.339844 226.824219 213.03125 226.804688 C 215.140625 223.761719 217.238281 220.710938 219.3125 217.640625 C 219.53125 217.660156 220.167969 217.714844 221.027344 217.785156 C 244.1875 183.800781 265.738281 147.140625 265.738281 120.378906 C 265.738281 97.492188 256.464844 76.773438 241.46875 61.777344 C 226.46875 46.777344 205.75 37.503906 182.863281 37.503906 C 159.980469 37.503906 139.261719 46.777344 124.261719 61.777344 C 109.269531 76.773438 99.992188 97.492188 99.992188 120.378906 C 99.992188 147.125 121.492188 183.800781 144.679688 217.800781 C 146.601562 217.644531 148.183594 217.515625 148.507812 217.488281 C 150.585938 220.554688 152.683594 223.609375 154.796875 226.648438 C 154.21875 226.691406 152.777344 226.804688 150.996094 226.941406 C 154.011719 231.257812 157.023438 235.511719 159.988281 239.671875 C 162.484375 239.558594 164.640625 239.457031 165.023438 239.4375 C 167.238281 242.550781 169.464844 245.660156 171.6875 248.765625 C 171.074219 248.792969 169.0625 248.882812 166.664062 248.988281 C 162.390625 249.179688 156.886719 249.425781 155.8125 249.484375 C 138.316406 250.414062 122.703125 252.230469 110.300781 254.667969 C 93.902344 257.886719 83.761719 261.378906 83.761719 264.375 C 83.761719 267.371094 93.902344 270.859375 110.300781 274.082031 C 128.808594 277.71875 154.460938 279.972656 182.863281 279.972656 C 211.269531 279.972656 236.921875 277.71875 255.429688 274.082031 C 271.828125 270.859375 281.96875 267.371094 281.96875 264.375 Z M 191.09375 243.625 C 188.332031 247.496094 185.640625 251.261719 182.898438 255.136719 C 180.691406 252.042969 178.195312 248.570312 175.640625 245.015625 C 146.941406 205.023438 109.640625 153.054688 109.640625 120.378906 C 109.640625 100.15625 117.839844 81.851562 131.089844 68.597656 C 144.339844 55.347656 162.644531 47.152344 182.863281 47.152344 C 203.085938 47.152344 221.394531 55.347656 234.640625 68.597656 C 247.890625 81.851562 256.089844 100.15625 256.089844 120.378906 C 256.089844 152.667969 219.539062 203.820312 191.09375 243.625 " fill-opacity="1" fill-rule="evenodd"/></g><g clip-path="url(#c6f05c98f0)"><path fill="#ffffff" d="M 182.863281 37.503906 C 205.75 37.503906 226.46875 46.777344 241.46875 61.777344 C 256.464844 76.773438 265.738281 97.492188 265.738281 120.378906 C 265.738281 155.714844 228.171875 208.292969 198.9375 249.207031 C 194.480469 255.441406 190.210938 261.414062 186.851562 266.21875 L 182.910156 263.46875 L 186.863281 266.234375 C 185.335938 268.414062 182.324219 268.949219 180.140625 267.421875 C 179.582031 267.027344 179.132812 266.539062 178.796875 265.988281 C 174.773438 260.285156 171.378906 255.5625 167.839844 250.628906 C 138.335938 209.519531 99.992188 156.097656 99.992188 120.378906 C 99.992188 97.492188 109.269531 76.773438 124.261719 61.777344 C 139.261719 46.777344 159.980469 37.503906 182.863281 37.503906 Z M 234.640625 68.597656 C 221.394531 55.347656 203.085938 47.152344 182.863281 47.152344 C 162.644531 47.152344 144.339844 55.347656 131.089844 68.597656 C 117.839844 81.851562 109.640625 100.15625 109.640625 120.378906 C 109.640625 153.054688 146.941406 205.023438 175.640625 245.015625 C 178.195312 248.570312 180.691406 252.042969 182.898438 255.136719 C 185.640625 251.261719 188.332031 247.496094 191.09375 243.625 C 219.539062 203.820312 256.089844 152.667969 256.089844 120.378906 C 256.089844 100.15625 247.890625 81.851562 234.640625 68.597656 " fill-opacity="1" fill-rule="nonzero"/></g><path fill="#ffffff" d="M 182.863281 83.03125 C 193.175781 83.03125 202.511719 87.210938 209.269531 93.96875 C 216.027344 100.730469 220.210938 110.0625 220.210938 120.378906 C 220.210938 130.691406 216.027344 140.027344 209.269531 146.785156 C 202.511719 153.542969 193.175781 157.722656 182.863281 157.722656 C 172.554688 157.722656 163.214844 153.542969 156.457031 146.785156 C 149.699219 140.027344 145.519531 130.691406 145.519531 120.378906 C 145.519531 110.0625 149.699219 100.730469 156.457031 93.96875 C 163.214844 87.210938 172.554688 83.03125 182.863281 83.03125 Z M 202.449219 100.792969 C 197.4375 95.78125 190.511719 92.683594 182.863281 92.683594 C 175.21875 92.683594 168.292969 95.78125 163.28125 100.792969 C 158.273438 105.804688 155.167969 112.730469 155.167969 120.378906 C 155.167969 128.027344 158.273438 134.949219 163.28125 139.960938 C 168.292969 144.972656 175.21875 148.070312 182.863281 148.070312 C 190.511719 148.070312 197.4375 144.972656 202.449219 139.960938 C 207.457031 134.949219 210.5625 128.027344 210.5625 120.378906 C 210.5625 112.730469 207.457031 105.804688 202.449219 100.792969 " fill-opacity="1" fill-rule="nonzero"/><g clip-path="url(#6af692f3e0)"><path fill="#ffffff" d="M 219.3125 217.640625 C 220.210938 217.71875 228.355469 218.378906 229.246094 218.464844 C 252.382812 220.621094 273.125 224.347656 289.984375 229.21875 C 319.207031 237.652344 337.285156 250.039062 337.285156 264.375 C 337.285156 278.707031 319.207031 291.09375 289.984375 299.535156 C 262.46875 307.476562 224.585938 312.394531 182.863281 312.394531 C 141.144531 312.394531 103.261719 307.476562 75.746094 299.535156 C 46.523438 291.09375 28.445312 278.707031 28.445312 264.375 C 28.445312 250.039062 46.523438 237.652344 75.746094 229.21875 C 92.605469 224.347656 113.351562 220.621094 136.488281 218.460938 C 137.371094 218.378906 147.621094 217.566406 148.507812 217.488281 C 150.585938 220.554688 152.683594 223.609375 154.796875 226.648438 C 152.902344 226.789062 141.648438 227.675781 139.785156 227.839844 C 116.273438 229.890625 95.285156 233.582031 78.425781 238.453125 C 53.507812 245.644531 38.097656 254.855469 38.097656 264.375 C 38.097656 273.894531 53.507812 283.101562 78.425781 290.296875 C 105.054688 297.984375 141.972656 302.742188 182.863281 302.742188 C 223.757812 302.742188 260.675781 297.984375 287.304688 290.296875 C 312.222656 283.101562 327.632812 273.894531 327.632812 264.375 C 327.632812 254.855469 312.222656 245.644531 287.304688 238.453125 C 270.183594 233.503906 248.800781 229.660156 224.84375 227.726562 C 223.335938 227.601562 214.5625 226.910156 213.03125 226.804688 C 215.140625 223.761719 217.238281 220.710938 219.3125 217.640625 " fill-opacity="1" fill-rule="nonzero"/></g><path fill="#ffffff" d="M 204.574219 239.59375 C 205.816406 239.664062 213.960938 240.050781 215.183594 240.128906 C 231.21875 241.148438 245.597656 242.910156 257.277344 245.203125 C 278.496094 249.371094 291.617188 256.089844 291.617188 264.375 C 291.617188 272.65625 278.496094 279.375 257.277344 283.546875 C 238.175781 287.296875 211.859375 289.621094 182.863281 289.621094 C 153.871094 289.621094 127.554688 287.296875 108.453125 283.546875 C 87.234375 279.375 74.109375 272.65625 74.109375 264.375 C 74.109375 256.089844 87.234375 249.371094 108.453125 245.203125 C 120.34375 242.867188 135.027344 241.085938 151.414062 240.070312 C 152.347656 240.015625 164.078125 239.488281 165.023438 239.4375 C 167.238281 242.550781 169.464844 245.660156 171.6875 248.765625 C 169.972656 248.84375 157.488281 249.390625 155.8125 249.484375 C 138.316406 250.414062 122.703125 252.230469 110.300781 254.667969 C 93.902344 257.886719 83.761719 261.378906 83.761719 264.375 C 83.761719 267.371094 93.902344 270.859375 110.300781 274.082031 C 128.808594 277.71875 154.460938 279.972656 182.863281 279.972656 C 211.269531 279.972656 236.921875 277.71875 255.429688 274.082031 C 271.828125 270.859375 281.96875 267.371094 281.96875 264.375 C 281.96875 261.378906 271.828125 257.886719 255.429688 254.667969 C 243.304688 252.285156 228.121094 250.496094 211.105469 249.546875 C 209.042969 249.433594 200.042969 249.015625 197.929688 248.925781 C 200.152344 245.820312 202.367188 242.710938 204.574219 239.59375 " fill-opacity="1" fill-rule="nonzero"/><path fill="#004aad" d="M 257.277344 245.203125 C 278.496094 249.371094 291.617188 256.089844 291.617188 264.375 C 291.617188 272.65625 278.496094 279.375 257.277344 283.546875 C 238.175781 287.296875 211.859375 289.621094 182.863281 289.621094 C 153.871094 289.621094 127.554688 287.296875 108.453125 283.546875 C 87.234375 279.375 74.109375 272.65625 74.109375 264.375 C 74.109375 256.089844 87.234375 249.371094 108.453125 245.203125 C 120.34375 242.867188 135.027344 241.085938 151.414062 240.070312 C 151.96875 240.039062 156.335938 239.839844 159.988281 239.671875 C 157.023438 235.511719 154.011719 231.257812 150.996094 226.941406 C 146.925781 227.261719 141.082031 227.726562 139.785156 227.839844 C 116.273438 229.890625 95.285156 233.582031 78.425781 238.453125 C 53.507812 245.644531 38.097656 254.855469 38.097656 264.375 C 38.097656 273.894531 53.507812 283.101562 78.425781 290.296875 C 105.054688 297.984375 141.972656 302.742188 182.863281 302.742188 C 223.757812 302.742188 260.675781 297.984375 287.304688 290.296875 C 312.222656 283.101562 327.632812 273.894531 327.632812 264.375 C 327.632812 254.855469 312.222656 245.644531 287.304688 238.453125 C 270.183594 233.503906 248.800781 229.660156 224.84375 227.726562 C 223.640625 227.625 217.804688 227.164062 214.71875 226.929688 C 211.710938 231.242188 208.707031 235.492188 205.75 239.652344 C 208.402344 239.789062 214.171875 240.0625 215.183594 240.128906 C 231.21875 241.148438 245.597656 242.910156 257.277344 245.203125 " fill-opacity="1" fill-rule="evenodd"/><path fill="#004aad" d="M 191.09375 243.625 C 219.539062 203.820312 256.089844 152.667969 256.089844 120.378906 C 256.089844 100.15625 247.890625 81.851562 234.640625 68.597656 C 221.394531 55.347656 203.085938 47.152344 182.863281 47.152344 C 162.644531 47.152344 144.339844 55.347656 131.089844 68.597656 C 117.839844 81.851562 109.640625 100.15625 109.640625 120.378906 C 109.640625 153.054688 146.941406 205.023438 175.640625 245.015625 C 178.195312 248.570312 180.691406 252.042969 182.898438 255.136719 C 185.640625 251.261719 188.332031 247.496094 191.09375 243.625 Z M 209.269531 146.785156 C 202.511719 153.542969 193.175781 157.722656 182.863281 157.722656 C 172.554688 157.722656 163.214844 153.542969 156.457031 146.785156 C 149.699219 140.027344 145.519531 130.691406 145.519531 120.378906 C 145.519531 110.0625 149.699219 100.730469 156.457031 93.96875 C 163.214844 87.210938 172.554688 83.03125 182.863281 83.03125 C 193.175781 83.03125 202.511719 87.210938 209.269531 93.96875 C 216.027344 100.730469 220.210938 110.0625 220.210938 120.378906 C 220.210938 130.691406 216.027344 140.027344 209.269531 146.785156 " fill-opacity="1" fill-rule="evenodd"/></svg>