<svg xmlns="http://www.w3.org/2000/svg" xmlns:xlink="http://www.w3.org/1999/xlink" width="500" zoomAndPan="magnify" viewBox="0 0 375 374.999991" height="500" preserveAspectRatio="xMidYMid meet" version="1.0"><defs><clipPath id="4858b69a88"><path d="M 89.089844 41 L 302.089844 41 L 302.089844 321.75 L 89.089844 321.75 Z M 89.089844 41 " clip-rule="nonzero"/></clipPath><clipPath id="d89308ad1d"><path d="M 224 37.5 L 262 37.5 L 262 106 L 224 106 Z M 224 37.5 " clip-rule="nonzero"/></clipPath></defs><rect x="-37.5" width="450" fill="#003366" y="-37.499999" height="449.999989" fill-opacity="1"/><rect x="-37.5" width="450" fill="#eee" y="-37.499999" height="449.999989" fill-opacity="1"/><g clip-path="url(#4858b69a88)"><path fill="#003366" d="M 260.992188 321.492188 L 130.539062 321.492188 C 107.726562 321.492188 89.167969 302.761719 89.167969 279.734375 L 89.167969 82.777344 C 89.167969 59.753906 107.726562 41.023438 130.539062 41.023438 L 218.316406 41.023438 C 220.1875 41.023438 221.707031 42.542969 221.707031 44.414062 C 221.707031 46.289062 220.1875 47.804688 218.316406 47.804688 L 130.539062 47.804688 C 111.464844 47.804688 95.949219 63.492188 95.949219 82.777344 L 95.949219 279.734375 C 95.949219 299.023438 111.464844 314.710938 130.539062 314.710938 L 260.992188 314.710938 C 280.066406 314.710938 295.582031 299.023438 295.582031 279.734375 L 295.582031 82.777344 C 295.582031 65.914062 283.652344 51.464844 267.21875 48.425781 C 265.378906 48.085938 264.164062 46.320312 264.503906 44.476562 C 264.84375 42.636719 266.613281 41.40625 268.453125 41.761719 C 288.101562 45.398438 302.363281 62.648438 302.363281 82.777344 L 302.363281 279.738281 C 302.363281 302.761719 283.804688 321.492188 260.992188 321.492188 Z M 260.992188 321.492188 " fill-opacity="1" fill-rule="nonzero"/></g><path fill="#004aad" d="M 259.917969 270.113281 L 131.613281 270.113281 C 122.492188 270.113281 115.070312 262.632812 115.070312 253.441406 L 115.070312 83.726562 C 115.070312 74.535156 122.492188 67.054688 131.613281 67.054688 L 218.316406 67.054688 C 220.1875 67.054688 221.707031 68.570312 221.707031 70.441406 C 221.707031 72.316406 220.1875 73.835938 218.316406 73.835938 L 131.613281 73.835938 C 126.226562 73.835938 121.851562 78.273438 121.851562 83.726562 L 121.851562 253.441406 C 121.851562 258.894531 126.226562 263.332031 131.613281 263.332031 L 259.917969 263.332031 C 265.375 263.332031 269.8125 258.894531 269.8125 253.441406 L 269.8125 83.726562 C 269.8125 80.710938 268.269531 77.851562 265.578125 75.894531 C 264.0625 74.796875 263.726562 72.671875 264.828125 71.164062 C 265.929688 69.652344 268.054688 69.324219 269.558594 70.414062 C 274.03125 73.664062 276.59375 78.515625 276.59375 83.726562 L 276.59375 253.441406 C 276.59375 262.632812 269.113281 270.113281 259.917969 270.113281 Z M 259.917969 270.113281 " fill-opacity="1" fill-rule="nonzero"/><path fill="#004aad" d="M 213.75 310.375 L 177.917969 310.375 C 170.644531 310.375 164.726562 304.410156 164.726562 297.085938 L 164.726562 288.144531 C 164.726562 280.820312 170.644531 274.855469 177.917969 274.855469 L 213.75 274.855469 C 221.023438 274.855469 226.9375 280.820312 226.9375 288.144531 L 226.9375 297.085938 C 226.9375 304.410156 221.023438 310.375 213.75 310.375 Z M 177.917969 281.636719 C 174.324219 281.636719 171.507812 284.492188 171.507812 288.144531 L 171.507812 297.085938 C 171.507812 300.738281 174.324219 303.59375 177.917969 303.59375 L 213.75 303.59375 C 217.222656 303.59375 220.15625 300.613281 220.15625 297.085938 L 220.15625 288.144531 C 220.15625 284.617188 217.222656 281.636719 213.75 281.636719 Z M 177.917969 281.636719 " fill-opacity="1" fill-rule="nonzero"/><g clip-path="url(#d89308ad1d)"><path fill="#004aad" d="M 257.773438 105.011719 C 257.230469 105.011719 256.683594 104.875 256.1875 104.617188 L 243.132812 97.71875 L 229.949219 104.625 C 228.902344 105.171875 227.636719 105.132812 226.625 104.519531 C 225.609375 103.90625 224.988281 102.804688 224.988281 101.621094 L 224.988281 40.890625 C 224.988281 39.015625 226.507812 37.5 228.378906 37.5 L 257.773438 37.5 C 259.644531 37.5 261.164062 39.019531 261.164062 40.890625 L 261.164062 101.621094 C 261.164062 102.808594 260.539062 103.90625 259.523438 104.523438 C 258.984375 104.84375 258.378906 105.011719 257.773438 105.011719 Z M 231.769531 44.28125 L 231.769531 96.019531 L 241.566406 90.886719 C 242.550781 90.371094 243.734375 90.375 244.722656 90.894531 L 254.382812 96 L 254.382812 44.28125 Z M 231.769531 44.28125 " fill-opacity="1" fill-rule="nonzero"/></g><path fill="#004aad" d="M 250.792969 234.734375 L 140.742188 234.734375 C 138.867188 234.734375 137.351562 233.214844 137.351562 231.34375 C 137.351562 229.472656 138.867188 227.953125 140.742188 227.953125 L 250.792969 227.953125 C 252.664062 227.953125 254.183594 229.472656 254.183594 231.34375 C 254.183594 233.214844 252.664062 234.734375 250.792969 234.734375 Z M 250.792969 214.671875 L 140.742188 214.671875 C 138.867188 214.671875 137.351562 213.152344 137.351562 211.28125 C 137.351562 209.410156 138.867188 207.890625 140.742188 207.890625 L 250.792969 207.890625 C 252.664062 207.890625 254.183594 209.410156 254.183594 211.28125 C 254.183594 213.152344 252.664062 214.671875 250.792969 214.671875 Z M 250.792969 194.75 L 140.742188 194.75 C 138.867188 194.75 137.351562 193.230469 137.351562 191.355469 C 137.351562 189.484375 138.867188 187.964844 140.742188 187.964844 L 250.792969 187.964844 C 252.664062 187.964844 254.183594 189.484375 254.183594 191.355469 C 254.183594 193.230469 252.664062 194.75 250.792969 194.75 Z M 250.792969 174.820312 L 140.742188 174.820312 C 138.867188 174.820312 137.351562 173.300781 137.351562 171.429688 C 137.351562 169.558594 138.867188 168.039062 140.742188 168.039062 L 250.792969 168.039062 C 252.664062 168.039062 254.183594 169.558594 254.183594 171.429688 C 254.183594 173.300781 252.664062 174.820312 250.792969 174.820312 Z M 250.792969 154.894531 L 140.742188 154.894531 C 138.867188 154.894531 137.351562 153.375 137.351562 151.503906 C 137.351562 149.628906 138.867188 148.113281 140.742188 148.113281 L 250.792969 148.113281 C 252.664062 148.113281 254.183594 149.628906 254.183594 151.503906 C 254.183594 153.375 252.664062 154.894531 250.792969 154.894531 Z M 250.792969 134.96875 L 140.742188 134.96875 C 138.867188 134.96875 137.351562 133.449219 137.351562 131.578125 C 137.351562 129.707031 138.867188 128.1875 140.742188 128.1875 L 250.792969 128.1875 C 252.664062 128.1875 254.183594 129.707031 254.183594 131.578125 C 254.183594 133.449219 252.664062 134.96875 250.792969 134.96875 Z M 250.792969 115.042969 L 140.742188 115.042969 C 138.867188 115.042969 137.351562 113.523438 137.351562 111.652344 C 137.351562 109.777344 138.867188 108.261719 140.742188 108.261719 L 250.792969 108.261719 C 252.664062 108.261719 254.183594 109.777344 254.183594 111.652344 C 254.183594 113.523438 252.664062 115.042969 250.792969 115.042969 Z M 218.175781 94.980469 L 140.742188 94.980469 C 138.867188 94.980469 137.351562 93.460938 137.351562 91.589844 C 137.351562 89.71875 138.867188 88.199219 140.742188 88.199219 L 218.175781 88.199219 C 220.050781 88.199219 221.570312 89.71875 221.570312 91.589844 C 221.566406 93.460938 220.050781 94.980469 218.175781 94.980469 Z M 218.175781 94.980469 " fill-opacity="1" fill-rule="nonzero"/></svg>